# xmcd
#
# Track frame offsets: 
#        150
#        17575
#        29352
#        47841
#        60442
#        74211
#        94950
#        118491
#        133052
#        148045
#        164190
#        186689
#        199115
#        213511
#        232799
#        245981
#        262664
#        281178
#        300558
#        316217
#
# Disc length: 4425 seconds
#
# Revision: 12
# Processed by: cddbd v1.5.2PL0 Copyright (c) Steve Scherf et al.
# Submitted via: ExactAudioCopy v1.0b1
#
DISCID=41114714
DTITLE=Chris LeDoux - 20 Greatest Hits
DYEAR=1999
DGENRE=Country
TTITLE0=Life Is A Highway
TTITLE1=Whatcha Gonna Do With A Cowboy (Duet with Garth Brooks)
TTITLE2=Gravitational Pull
TTITLE3=Dallas Days And Ft. Worth Nights
TTITLE4=County Fair
TTITLE5=Bang A Drum
TTITLE6=Stampede
TTITLE7=Look At You Girl
TTITLE8=Cadillac Cowboy
TTITLE9=Hooked On A 8 Second Ride
TTITLE10=Tougher Than The Rest
TTITLE11=Copenhagen
TTITLE12=Even Cowboys Like A Little Rock And Roll
TTITLE13=This Cowboy's Hat
TTITLE14=Cadillac Ranch
TTITLE15=Five Dollar Fine
TTITLE16=Honky Tonk World
TTITLE17=Little Long-Haired Outlaw
TTITLE18=For Your Love
TTITLE19=Western Skies
EXTD=YEAR: 1999 ID3G:   2
EXTT0=
EXTT1=
EXTT2=
EXTT3=
EXTT4=
EXTT5=
EXTT6=
EXTT7=
EXTT8=
EXTT9=
EXTT10=
EXTT11=
EXTT12=
EXTT13=
EXTT14=
EXTT15=
EXTT16=
EXTT17=
EXTT18=
EXTT19=
PLAYORDER=
